<svg width="41" height="40" viewBox="0 0 41 40" fill="none" xmlns="http://www.w3.org/2000/svg">
<path d="M20.5 0C9.45 0 0.5 8.95 0.5 20C0.5 31.05 9.45 40 20.5 40C31.55 40 40.5 31.05 40.5 20C40.5 8.95 31.55 0 20.5 0ZM12.0125 12.125C12.0125 8.0625 14.8625 4.675 18.675 3.8375V36.1625C14.8625 35.325 12.0125 31.9375 12.0125 27.875V12.1125V12.125ZM28.9875 27.8875C28.9875 31.95 26.1375 35.3375 22.325 36.175V3.8375C26.1375 4.675 28.9875 8.0625 28.9875 12.125V27.8875ZM4.1375 20C4.1375 15.4625 5.9875 11.3625 8.975 8.3875C8.6 9.5625 8.3875 10.8125 8.3875 12.1125V27.875C8.3875 29.175 8.6 30.425 8.975 31.6C5.9875 28.6375 4.1375 24.525 4.1375 19.9875V20ZM32.0375 31.6125C32.4125 30.4375 32.625 29.1875 32.625 27.8875V12.125C32.625 10.825 32.4125 9.575 32.0375 8.4C35.025 11.3625 36.875 15.475 36.875 20.0125C36.875 24.55 35.025 28.65 32.0375 31.625V31.6125Z" fill="white"/>
</svg>
