<svg width="39" height="40" viewBox="0 0 39 40" fill="none" xmlns="http://www.w3.org/2000/svg">
<path d="M0 20.0005C0 30.6778 8.57613 39.3397 19.2105 39.4898C13.9577 39.3397 9.75536 35.0302 9.75536 29.7559V10.2666C9.75536 5.07807 13.829 0.811439 18.9533 0.532715C8.42606 0.811439 0 9.40902 0 20.0005Z" fill="#401689"/>
<path d="M19.7893 39.4891C30.4237 39.339 38.9999 30.6557 38.9999 19.9998C38.9999 9.42972 30.5738 0.810707 20.068 0.531982C25.1923 0.810707 29.2445 5.05589 29.2445 10.2659V29.7552C29.2445 35.0295 25.0208 39.339 19.7893 39.4891Z" fill="#00FFEE"/>
<path d="M9.75546 10.2446V29.7339C9.75546 35.0082 13.9578 39.3177 19.2106 39.4678C19.3178 39.4678 19.4036 39.4678 19.4894 39.4678V0.489258C19.2964 0.489258 19.1249 0.489259 18.9319 0.510699C13.8077 0.810864 9.73401 5.05605 9.75546 10.2446Z" fill="#6E05FF"/>
<path d="M19.4893 0.510986V39.511C19.5965 39.511 19.6822 39.511 19.7894 39.511C25.0423 39.3609 29.2446 35.0514 29.2446 29.7771V10.2878C29.2446 5.09922 25.1924 0.832588 20.0681 0.553863C19.8752 0.510982 19.6822 0.510986 19.4893 0.510986Z" fill="#00B7FF"/>
</svg>
